<?xml version="1.0" standalone="no"?>
<!DOCTYPE svg PUBLIC "-//W3C//DTD SVG 20010904//EN"
 "http://www.w3.org/TR/2001/REC-SVG-20010904/DTD/svg10.dtd">
<svg version="1.0" xmlns="http://www.w3.org/2000/svg"
 width="460.000000pt" height="460.000000pt" viewBox="0 0 460.000000 460.000000"
 preserveAspectRatio="xMidYMid meet">

<g transform="translate(0.000000,460.000000) scale(0.100000,-0.100000)"
fill="#000000" stroke="none">
<path d="M670 4234 c-198 -52 -390 -232 -500 -467 -60 -128 -81 -214 -87 -358
-6 -145 5 -230 46 -334 75 -193 254 -367 509 -495 128 -64 295 -120 381 -127
l68 -6 -48 -96 c-91 -181 -149 -435 -149 -649 0 -329 131 -662 348 -885 144
-148 401 -272 647 -313 127 -20 374 -14 520 15 248 48 517 174 724 341 404
325 626 806 582 1265 -6 61 -13 125 -17 143 l-6 32 75 0 c129 0 304 66 435
165 149 112 257 302 313 550 28 125 30 298 6 395 -36 138 -142 307 -244 388
-97 77 -221 121 -305 108 -182 -27 -290 -277 -212 -491 50 -136 57 -162 50
-188 l-6 -26 -68 36 c-57 30 -74 34 -115 30 -138 -13 -181 -150 -104 -325 52
-117 61 -163 42 -209 -18 -42 -13 -45 -94 62 -233 305 -532 472 -905 505 -344
30 -674 -94 -1028 -386 -43 -35 -81 -64 -86 -64 -17 0 -82 80 -82 100 0 11 27
49 59 85 81 89 105 142 106 230 1 176 -128 269 -307 222 -54 -14 -108 -13
-108 3 0 4 26 41 58 81 77 97 97 132 117 203 48 167 -26 330 -187 412 -119 61
-303 81 -428 48z m2027 -1129 c189 -46 339 -125 471 -250 149 -140 247 -290
308 -472 38 -113 53 -212 54 -351 0 -116 -2 -126 -29 -180 -44 -87 -44 -87
-195 -87 -117 0 -135 -2 -174 -23 -71 -38 -82 -67 -80 -207 3 -129 -5 -157
-54 -202 -27 -25 -88 -43 -120 -36 -13 3 -55 20 -94 39 -120 56 -206 67 -305
38 -83 -24 -135 -84 -178 -204 -18 -52 -45 -111 -58 -132 -70 -105 -246 -102
-293 5 -10 23 -21 83 -25 132 -11 137 -36 206 -98 270 -41 42 -64 57 -109 70
-66 19 -91 14 -175 -31 -74 -41 -111 -43 -153 -8 -51 44 -61 73 -95 282 -24
147 -85 240 -168 256 l-34 6 8 46 c16 85 129 331 202 439 53 78 222 251 312
320 122 93 427 245 562 280 159 40 354 40 520 0z m-1564 -1205 c34 -27 45 -68
58 -214 15 -175 52 -263 136 -318 93 -61 159 -60 266 4 62 37 69 39 97 28 40
-16 77 -62 90 -108 5 -21 14 -85 19 -143 11 -128 37 -195 94 -244 125 -107
321 -96 430 24 43 47 76 111 106 203 30 91 50 114 111 127 65 14 118 2 213
-46 88 -45 160 -54 236 -28 71 23 141 89 177 167 26 58 28 72 27 170 -1 74 2
110 10 115 7 5 71 8 143 8 l131 0 -34 -80 c-195 -456 -621 -790 -1118 -876
-167 -29 -386 -23 -527 14 -371 98 -606 344 -709 742 -20 77 -23 115 -24 265
0 96 3 183 7 193 10 23 29 22 61 -3z"/>
<path d="M1956 2819 c-87 -14 -172 -65 -271 -164 -99 -99 -144 -167 -182 -276
-21 -61 -24 -86 -21 -158 7 -177 99 -291 234 -291 65 0 147 35 206 89 29 26
88 76 132 111 103 83 156 156 191 264 24 73 27 97 23 168 -5 97 -26 146 -86
200 -58 52 -134 71 -226 57z m8 -360 c35 -28 36 -80 1 -114 -30 -31 -56 -32
-90 -2 -37 31 -37 82 -1 114 33 28 56 29 90 2z"/>
<path d="M2863 2717 c-53 -20 -119 -72 -153 -123 -50 -71 -72 -139 -77 -234
-6 -101 15 -171 72 -238 73 -84 218 -123 337 -88 73 21 148 87 184 164 40 83
45 212 14 308 -20 58 -34 79 -89 134 -45 45 -79 70 -107 78 -51 15 -139 14
-181 -1z m108 -286 c35 -36 40 -88 9 -116 -26 -24 -98 -15 -122 15 -25 30 -23
79 4 107 30 32 72 30 109 -6z"/>
<path d="M2290 1978 c-52 -27 -78 -60 -90 -114 -12 -53 5 -88 45 -92 23 -2 40
6 75 38 24 22 47 40 50 40 3 0 31 -22 62 -50 31 -27 61 -50 67 -50 26 0 34 46
16 105 -22 77 -39 100 -89 125 -54 26 -81 25 -136 -2z"/>
</g>
</svg>
